STARTFONT 2.3
FONT -FontForge-Henny Penny-Book-R-Normal--24-240-72-72-P-137-ISO10646-1
SIZE 24 72 72  2
FONTBOUNDINGBOX 34 43 -4 -15
COMMENT "Generated by fontforge, http://fontforge.sourceforge.net"
COMMENT "Copyright (c) 2012, Brownfox (gayaneh.b@gmail.com), with Reserved Font Name "Henny Penny""
STARTPROPERTIES 40
FOUNDRY "FontForge"
FAMILY_NAME "Henny Penny"
WEIGHT_NAME "Book"
SLANT "R"
SETWIDTH_NAME "Normal"
ADD_STYLE_NAME ""
PIXEL_SIZE 24
POINT_SIZE 240
RESOLUTION_X 72
RESOLUTION_Y 72
SPACING "P"
AVERAGE_WIDTH 137
CHARSET_REGISTRY "ISO10646"
CHARSET_ENCODING "1"
FONTNAME_REGISTRY ""
CHARSET_COLLECTIONS "ISO10646-1"
BITS_PER_PIXEL 2
FONT_NAME "HennyPenny-Regular"
FACE_NAME "Henny Penny"
COPYRIGHT "Copyright (c) 2012, Brownfox (gayaneh.b@gmail.com), with Reserved Font Name "Henny Penny""
FONT_VERSION "1.001"
FONT_ASCENT 19
FONT_DESCENT 5
UNDERLINE_POSITION -2
UNDERLINE_THICKNESS 2
X_HEIGHT 14
CAP_HEIGHT 17
RAW_ASCENT 799
RAW_DESCENT 200
NORM_SPACE 6
RELATIVE_WEIGHT 40
RELATIVE_SETWIDTH 50
SUPERSCRIPT_X 0
SUPERSCRIPT_Y 8
SUPERSCRIPT_SIZE 14
SUBSCRIPT_X 0
SUBSCRIPT_Y 1
SUBSCRIPT_SIZE 14
AVG_LOWERCASE_WIDTH 123
AVG_UPPERCASE_WIDTH 172
ENDPROPERTIES
CHARS 233
STARTCHAR space
ENCODING 32
SWIDTH 270 0
DWIDTH 6 0
BBX 1 1 0 0
BITMAP
00
ENDCHAR
STARTCHAR exclam
ENCODING 33
SWIDTH 249 0
DWIDTH 6 0
BBX 4 24 1 -1
BITMAP
78
BE
BE
BE
7E
7E
3E
3D
3D
2D
2D
2C
1C
1C
18
18
14
10
00
00
00
78
BD
78
ENDCHAR
STARTCHAR quotedbl
ENCODING 34
SWIDTH 292 0
DWIDTH 7 0
BBX 5 8 1 12
BITMAP
A280
B380
B380
B280
6280
6240
2240
1100
ENDCHAR
STARTCHAR numbersign
ENCODING 35
SWIDTH 1030 0
DWIDTH 25 0
BBX 23 27 1 -8
BITMAP
000000800000
000001800000
000002410000
000002020000
000005050000
000008080000
140018180000
55AAFEB95550
0000A0A00564
000090C00000
000081800000
000242400000
000306016400
001BAFA94000
6BFE6C000000
102C24000000
003430000000
0070A0000000
00E0C0000000
01C180000000
028340000000
034700000000
000900000000
000C00000000
002800000000
003400000000
001000000000
ENDCHAR
STARTCHAR dollar
ENCODING 36
SWIDTH 799 0
DWIDTH 19 0
BBX 15 27 2 -5
BITMAP
00000400
00001404
00001424
000AFAB0
007D27E0
00B821D0
00F820C0
01FC5080
00FE9040
00BFC000
007FD000
002FF400
000BFC00
0002FE00
0002BF40
04023F80
08021FC0
08050BD0
0C0807D0
1D0807C0
2E0807C0
3F540F40
52E46E00
007FE400
00200000
00600000
00500000
ENDCHAR
STARTCHAR percent
ENCODING 37
SWIDTH 789 0
DWIDTH 19 0
BBX 19 22 0 0
BITMAP
02FD000140
0F4B800200
1E03D00900
2E02D01800
2E02D07000
1F02D0D000
0B87828000
02F9060000
00001C0000
0000340000
0000A00000
0001800000
000701BE00
000D0B82D0
00281E01F0
00602D00F4
00C02D00F4
02402D00F0
0A001E01E0
18000F47D0
340002FE00
5000000000
ENDCHAR
STARTCHAR ampersand
ENCODING 38
SWIDTH 773 0
DWIDTH 19 0
BBX 18 23 0 -2
BITMAP
001BE00000
00B4740000
01C0380000
02C0380000
0280B40000
02C1E00000
02C7C00000
01EF400000
01FD000600
01F8001F00
07F801FF00
0FFD190F00
2F6F000A00
3F0F800A00
3F07D00D00
7F02F01C00
3F00F82400
3F407E6000
1FC02FD010
0BF41FF860
01BFA6FFC0
000000BF80
0000001A00
ENDCHAR
STARTCHAR quotesingle
ENCODING 39
SWIDTH 174 0
DWIDTH 4 0
BBX 2 8 1 11
BITMAP
A0
B0
B0
B0
70
70
20
10
ENDCHAR
STARTCHAR parenleft
ENCODING 40
SWIDTH 431 0
DWIDTH 10 0
BBX 11 34 0 -10
BITMAP
001000
005000
00C000
028000
074000
0B0000
0E0000
1D0000
2D0000
3C0000
7C0000
7C0000
BC0000
B80000
B80000
B80000
BC0000
BC0000
BC0000
7D0000
3E0000
3E0000
2F0000
1F4000
0F8000
07C000
03E000
01F000
00B800
003D00
000F00
000780
0001E0
000024
ENDCHAR
STARTCHAR parenright
ENCODING 41
SWIDTH 443 0
DWIDTH 11 0
BBX 11 24 0 -6
BITMAP
190000
07D000
00F800
007E00
001F40
000BC0
0007D0
0003F0
0002F0
0001F4
0001F4
0001F4
0001F4
0001F4
0002F0
0002E0
0003D0
000B80
001F00
003D00
00B400
07D000
6D0000
500000
ENDCHAR
STARTCHAR asterisk
ENCODING 42
SWIDTH 490 0
DWIDTH 12 0
BBX 10 10 1 12
BITMAP
00D000
00E000
00E1D0
00B3C0
A93740
BFB800
007800
038B40
0F07C0
0402D0
ENDCHAR
STARTCHAR plus
ENCODING 43
SWIDTH 440 0
DWIDTH 11 0
BBX 8 13 1 1
BITMAP
0050
0090
0050
0050
0090
0095
BFFA
0090
0050
0060
0060
0020
0010
ENDCHAR
STARTCHAR comma
ENCODING 44
SWIDTH 251 0
DWIDTH 6 0
BBX 4 8 1 -4
BITMAP
7D
BE
BE
2E
0D
0C
24
20
ENDCHAR
STARTCHAR hyphen
ENCODING 45
SWIDTH 436 0
DWIDTH 10 0
BBX 8 2 1 5
BITMAP
5001
6FFE
ENDCHAR
STARTCHAR period
ENCODING 46
SWIDTH 238 0
DWIDTH 6 0
BBX 4 4 1 -1
BITMAP
78
BD
BD
78
ENDCHAR
STARTCHAR slash
ENCODING 47
SWIDTH 690 0
DWIDTH 17 0
BBX 16 22 0 0
BITMAP
00000002
00000006
0000001C
00000034
000000A0
000001C0
00000340
00000900
00002800
00007000
0000D000
00028000
00060000
000C0000
00240000
00A00000
01C00000
03400000
09000000
18000000
30000000
90000000
ENDCHAR
STARTCHAR zero
ENCODING 48
SWIDTH 723 0
DWIDTH 17 0
BBX 17 17 0 2
BITMAP
001BFA0000
01E407E000
0B8000B800
1F00003D00
3E00002F00
7D00001F40
BC00000F80
BC00000FC0
BC00000BC0
BC00000BC0
7D00000BC0
7E00000F80
2F00001F40
1F80002E00
07D0007C00
01F902E000
001BFE4000
ENDCHAR
STARTCHAR one
ENCODING 49
SWIDTH 505 0
DWIDTH 12 0
BBX 12 23 0 -2
BITMAP
001400
002400
007800
00B800
02FC00
0BFC00
29BD00
907D00
003E00
002E00
002F00
001F00
001F40
001F40
001F80
000F80
000FC0
000FD0
000FF0
002FFE
01B900
0B4000
040000
ENDCHAR
STARTCHAR two
ENCODING 50
SWIDTH 534 0
DWIDTH 13 0
BBX 13 21 0 -2
BITMAP
01BE4000
0BFFE000
290BF400
6002FC00
9001FC00
8000FC00
8001F800
4001F400
0002E000
0003C000
000B4000
001D0000
00740000
01D00000
0A000000
7D000000
1B900040
01FE4600
001FFD00
0002F800
0000B000
ENDCHAR
STARTCHAR three
ENCODING 51
SWIDTH 511 0
DWIDTH 12 0
BBX 13 20 0 -2
BITMAP
29000000
3FFFA000
3FFFE000
2D00C000
20014000
10050000
00040000
00240000
003F4000
000BE000
0001FC00
4000BE00
80003F00
80002F40
90002F40
60002F00
34007E00
1E41FD00
0BFFF400
01BF9000
ENDCHAR
STARTCHAR four
ENCODING 52
SWIDTH 712 0
DWIDTH 17 0
BBX 17 24 0 -3
BITMAP
0000040000
0000240000
0000B00000
0001F00000
0007F00000
0019F00000
0020F40000
0080B40000
0200B80000
0D007C0000
38007D0000
BD003D0000
1BE43E0000
007E7F0100
0006FF9600
00006FFD00
00001FF800
00000F8000
00000FC000
00000BD000
00000FE000
0000AFF400
0000001A40
0000000040
ENDCHAR
STARTCHAR five
ENCODING 53
SWIDTH 757 0
DWIDTH 18 0
BBX 18 22 0 -2
BITMAP
0000290020
00003F9060
00009FFED0
000082FFC0
0002007F40
0005000A00
0008000000
001E500000
001FFE0000
0001BF8000
00001FE000
200007F400
500002F800
800001F800
800001F800
800001F400
800002F400
900003F000
600007D000
24001F8000
0A407D0000
01BFA00000
ENDCHAR
STARTCHAR six
ENCODING 54
SWIDTH 598 0
DWIDTH 14 0
BBX 14 19 0 0
BITMAP
001BF800
01F80740
07E001D0
0FC00060
2F400020
3F000000
7F1BE800
7EA01F40
BF8007C0
BF0002E0
BE0001F0
BE0001F0
7E0000F0
3E0000F0
2E0001E0
1F4002D0
07800380
01E41E00
001BE400
ENDCHAR
STARTCHAR seven
ENCODING 55
SWIDTH 507 0
DWIDTH 12 0
BBX 12 20 0 -2
BITMAP
50005A
FFFFFD
BFFFF8
B01BF4
500060
500050
400080
000240
000300
000A00
000D00
002C00
003800
00B800
00F400
01F400
02F000
03F000
07E000
050000
ENDCHAR
STARTCHAR eight
ENCODING 56
SWIDTH 476 0
DWIDTH 11 0
BBX 12 20 0 -1
BITMAP
01BE40
0BD180
1F4060
2F4020
3F4020
3F8050
2FE180
0FFE00
07FF40
02FFD0
0A5BF0
2802F8
7400BC
A0003D
A0002D
A0002C
B0003C
780074
1E41E0
06FE40
ENDCHAR
STARTCHAR nine
ENCODING 57
SWIDTH 601 0
DWIDTH 14 0
BBX 14 18 0 0
BITMAP
01BF9000
0B81BD00
2E002F40
7C000FC0
BC000BE0
B80007F0
B80007F0
BC0007F0
7D0007F0
2F000FF0
0BD02FF0
01BF9BE0
00000BD0
00000FC0
00001F40
20007E00
1D01F400
02FE8000
ENDCHAR
STARTCHAR colon
ENCODING 58
SWIDTH 246 0
DWIDTH 6 0
BBX 4 12 1 -1
BITMAP
7C
BE
BD
78
00
00
00
00
2D
7E
7E
2D
ENDCHAR
STARTCHAR semicolon
ENCODING 59
SWIDTH 266 0
DWIDTH 6 0
BBX 4 16 1 -5
BITMAP
2E
7F
7F
2D
00
00
00
00
00
7D
BF
7F
2E
1C
24
50
ENDCHAR
STARTCHAR less
ENCODING 60
SWIDTH 522 0
DWIDTH 13 0
BBX 10 11 1 2
BITMAP
000060
000280
001D00
00A000
074000
680000
790000
078000
00B800
000B80
0001B0
ENDCHAR
STARTCHAR equal
ENCODING 61
SWIDTH 655 0
DWIDTH 16 0
BBX 14 5 1 5
BITMAP
005AAFD0
7EA55000
00000000
00000000
BFFEAA00
ENDCHAR
STARTCHAR greater
ENCODING 62
SWIDTH 533 0
DWIDTH 13 0
BBX 10 12 1 1
BITMAP
640000
0A0000
01D000
002900
000780
0000B0
0000A0
000780
001D00
00A000
064000
040000
ENDCHAR
STARTCHAR question
ENCODING 63
SWIDTH 564 0
DWIDTH 14 0
BBX 13 22 0 -2
BITMAP
00BFA000
0741BD00
1D003F00
2C001F80
7D001F80
7E001F80
7F802F80
7FC03F40
3FC0BE00
1F81F800
0007E000
002E4000
00B40000
01800000
03000000
06000000
06100000
02D00000
00000000
01E00000
02F00000
01E00000
ENDCHAR
STARTCHAR at
ENCODING 64
SWIDTH 898 0
DWIDTH 22 0
BBX 20 24 1 -7
BITMAP
0001BFE400
001E401B40
00A00001D0
0280000034
0A00000018
080000F80C
2406F9F809
302E07F805
607802F406
90F401F406
81F000F406
81F000F405
81F400F409
81F401F408
81F802B418
90BE0A3C60
507FFC1B80
200BE00000
24000B4000
18001FC000
09000BC000
034003C000
00A4074000
001BF90000
ENDCHAR
STARTCHAR A
ENCODING 65
SWIDTH 784 0
DWIDTH 19 0
BBX 19 22 0 -2
BITMAP
0000240000
0006F80000
00BBFC0000
0002FD0000
00023E0000
00022F0000
00051F4000
00080F8000
00080BC000
00180BD000
002E47E000
0031BFF000
006007F400
009002F800
00C000FC00
028000BD00
0740007F00
FF80007F40
06E0003F80
0010002FE0
0000007FFC
0000039400
ENDCHAR
STARTCHAR B
ENCODING 66
SWIDTH 685 0
DWIDTH 16 0
BBX 16 24 0 -3
BITMAP
0016FE40
6FF01FD0
03F007F0
02F003F0
01F002F0
01F003E0
00F007C0
00F40A00
00F56400
00FEAF40
00F402F4
00F400FC
00F8007E
00F8003F
00F8003F
00F8003F
00F8003F
00FC003E
00FC007D
01FD00B8
01FF46E0
07FFFE40
2D000000
90000000
ENDCHAR
STARTCHAR C
ENCODING 67
SWIDTH 742 0
DWIDTH 18 0
BBX 18 22 0 -2
BITMAP
0000000200
0000000200
0000000600
001AFFAF00
01BD01BF00
07E0000B00
1FC0000240
2F40000080
7F00000000
7F00000000
BE00000000
BE00000000
FE00000000
BE00000010
BF00000020
BF40000050
7F80000050
2FC0000080
0FE0000140
07F8000600
00BF406800
0016FF9000
ENDCHAR
STARTCHAR D
ENCODING 68
SWIDTH 726 0
DWIDTH 17 0
BBX 17 20 0 -4
BITMAP
155AFF9000
1FF407F800
03E000FE00
02E0003F40
02E0002F80
02E0001FC0
01E0001FC0
01E0001FC0
01F0001FC0
01F0001F80
01F0002F40
01F4007E00
01F800B800
02FD07E000
02FFE90000
03F9000000
0B80000000
1D00000000
6000000000
4000000000
ENDCHAR
STARTCHAR E
ENCODING 69
SWIDTH 557 0
DWIDTH 13 0
BBX 14 22 0 -3
BITMAP
5555AF00
2FE40300
0FD00200
0BD00100
0BD00000
07E00000
07E00000
03E04000
03E08000
03FFC000
02E1C000
02E08000
02F08000
01F00000
01F00000
01F00000
01F00000
00F40050
00F40090
01F802C0
7FFFBFC0
00055A40
ENDCHAR
STARTCHAR F
ENCODING 70
SWIDTH 533 0
DWIDTH 13 0
BBX 14 21 0 -1
BITMAP
000006D0
0016FFD0
6BF902C0
6FF401C0
07F40180
03F40140
02F40200
02F41000
01F45000
01F5D000
01FFC000
00F48000
00F85000
00F85000
00B80000
00B80000
00B80000
00B80000
00B80000
01FD0000
7FAB8000
ENDCHAR
STARTCHAR G
ENCODING 71
SWIDTH 750 0
DWIDTH 18 0
BBX 18 18 0 -1
BITMAP
0000000020
0000000060
001BFE41C0
00BD01BF40
07E0002F00
1F80001D00
3F40000C00
7F00001800
BE00000000
BE00000040
FE00005B80
BE007FFE00
BE00007E00
7F00003E00
3F80003E00
1FD0007F00
07F9069600
006FE90000
ENDCHAR
STARTCHAR H
ENCODING 72
SWIDTH 743 0
DWIDTH 18 0
BBX 18 25 0 -4
BITMAP
2900000000
07FFE00000
03F4000010
02F0005B90
02F01FFF00
02F000BE00
02F0007E00
02F0003E00
02F0003E00
02F0003E00
02F0003D00
02F001BD00
02FFFAFD00
02F4003D00
02F0003D00
02F0003D00
02F0002D00
02F0002D00
02F0002D00
03F0002D00
03F0007E00
03F00FFFD0
07F4050000
6FFC000000
5005000000
ENDCHAR
STARTCHAR I
ENCODING 73
SWIDTH 438 0
DWIDTH 11 0
BBX 13 25 -1 -5
BITMAP
6AAAAF80
06FFD000
00FF4000
00BE0000
00BE0000
00BD0000
00BD0000
00BD0000
00BC0000
00BC0000
00BC0000
00B80000
00B80000
00B80000
00B80000
00B40000
00B40000
00B40000
00B40000
00B40000
00B40000
00F80000
02FFD000
6E400000
50000000
ENDCHAR
STARTCHAR J
ENCODING 74
SWIDTH 628 0
DWIDTH 15 0
BBX 16 28 0 -6
BITMAP
0000001B
000016F4
001FFFC0
0001FF40
00007F40
00003F40
00002F40
00002F40
00002F40
00002F00
00001F00
00001F00
00001F00
00001F00
00001F00
00001E00
00002E00
00002E00
00002D00
00003C00
00003C00
1F807800
7FD0B400
BFE0E000
FFD2D000
A1074000
642E0000
1BE40000
ENDCHAR
STARTCHAR K
ENCODING 75
SWIDTH 866 0
DWIDTH 21 0
BBX 22 21 0 -2
BITMAP
005A00000000
BFF40B500000
0BF002FFD000
07E002D00000
07E002000000
03E008000000
03E020000000
03E0A0000000
03E2F0000000
02FAF4000000
02F5FC000000
02F0FD000000
02F07F000200
02F02F800180
02F00FE00080
01F007F800D0
01F001FF41C0
01F0007FFF80
02F40006F900
0BFD00000000
000640000000
ENDCHAR
STARTCHAR L
ENCODING 76
SWIDTH 660 0
DWIDTH 16 0
BBX 16 18 0 0
BITMAP
65000000
1BFFF800
01FF4000
00FF0000
00BE0000
00BE0000
00BD0000
00BD0000
00BD0000
00BC0000
00BC0050
00BC0020
00BC0020
00BC0024
00BC0038
00FD00BC
1BFFFFFD
29500000
ENDCHAR
STARTCHAR M
ENCODING 77
SWIDTH 1089 0
DWIDTH 26 0
BBX 27 19 0 -2
BITMAP
0000000000FF80
0000000001F500
0050000002D000
007FE00007D000
000FF8000BD000
0006BD001BD000
00063F0023E000
00022F8052E000
00020FE082F000
000207F541F400
000202FE00F400
000201FD00F800
000200BC00BC00
00050034007D00
00040010007F00
78080000007F90
FE24000001FFF8
BFD000000A5000
6F400000000000
ENDCHAR
STARTCHAR N
ENCODING 78
SWIDTH 799 0
DWIDTH 19 0
BBX 19 23 0 -5
BITMAP
0040000014
FFF400FFF8
07FD001B80
02FF400340
02AFD00300
024FF40300
0247FC0200
0141FF0200
0140BF8200
01403FE600
01401FFE00
014007FE00
014002FE00
014000BE00
0140003E00
0140001E00
0140000500
0140000000
0280000000
0280000000
0BD0000000
BFF4000000
0019000000
ENDCHAR
STARTCHAR O
ENCODING 79
SWIDTH 747 0
DWIDTH 18 0
BBX 18 18 0 1
BITMAP
001BFA4000
01F41BE000
078001FD00
1F00007F00
3E00003F80
7D00001FC0
BD00000FD0
BC00000FE0
FC00000BE0
BD00000BE0
BD00000BE0
BE00000BD0
7E00000BC0
3F40000F80
1F80002F00
07E0007D00
01F901F400
001BFE4000
ENDCHAR
STARTCHAR P
ENCODING 80
SWIDTH 623 0
DWIDTH 15 0
BBX 15 21 0 -3
BITMAP
0005BF80
FFFF47F4
06FD01F8
00FD00FC
00BC00FC
007C00F8
007C00F8
007C02F0
007C07D0
007FFE00
007C0000
00BC0000
00BC0000
00BC0000
00BC0000
00BC0000
00FD0000
00FD0000
01FE0000
07FF8000
69016900
ENDCHAR
STARTCHAR Q
ENCODING 81
SWIDTH 804 0
DWIDTH 19 0
BBX 28 30 0 -11
BITMAP
0006FE90000000
00B406F8000000
02C0007F400000
0B40001FC00000
1E00000BE00000
3D000007F40000
7C000002F80000
BC000001F80000
BC000001FC0000
FC000000FC0000
FC000000FC0000
BD000000F80000
BD000000F80000
7E0007E5F40000
3F00182FF00000
2F80200FE00000
0FD0200BC00000
03F4200FD00000
00BE607BE00000
001AFE82F00000
00000002F40000
00000001F80000
00000001FC0000
00000000FD0001
00000000BE0005
000000007F4005
000000003FC008
000000001FE464
000000000BFFE0
0000000001BE40
ENDCHAR
STARTCHAR R
ENCODING 82
SWIDTH 869 0
DWIDTH 21 0
BBX 22 18 0 -1
BITMAP
0016FE400000
FFFE0BD00000
1BFC02F00000
02F802F40000
01F401F40000
01F402F40000
00F403F00000
00F40BE00000
00F46F800000
00FFFE000000
00B47E000000
00B43F000000
00B81F800050
00B80FD00020
00B807F40060
01FC01FE41D0
3FFF407FFF80
00018006FE00
ENDCHAR
STARTCHAR S
ENCODING 83
SWIDTH 517 0
DWIDTH 12 0
BBX 13 22 0 -3
BITMAP
00000200
002F9200
00F42E00
02E00A00
03D00500
03E00100
03F40000
01F80000
00FE0000
007F8000
001FD000
000BF400
0002FC00
0000FE00
80007F00
80003F40
A0002F80
70001F80
78001F40
7D002F00
7690BC00
406FA000
ENDCHAR
STARTCHAR T
ENCODING 84
SWIDTH 659 0
DWIDTH 16 0
BBX 17 24 0 -3
BITMAP
7A50005B40
7FFFFFFF80
7900781B40
7400B80340
3400B80200
2400B80100
1400B80000
0800B80000
0800B80000
0000B80000
0000F80000
0000F80000
0000F80000
0000F80000
0000F80000
0000F80000
0001F80000
0001F80000
0001F80000
0002FC0000
0003FE4000
000BFFFC00
002E400000
00A0000000
ENDCHAR
STARTCHAR U
ENCODING 85
SWIDTH 690 0
DWIDTH 17 0
BBX 18 18 0 1
BITMAP
0000100000
0006E00000
05BF400000
FFFD000000
0BFC2FAAA0
07F801BC00
03F4002800
03F4001800
03F4001800
03F4001800
03F4001800
02F4001800
02F8001400
01F8001400
00FC002000
007E005000
002F818000
0006FE0000
ENDCHAR
STARTCHAR V
ENCODING 86
SWIDTH 798 0
DWIDTH 19 0
BBX 21 18 0 0
BITMAP
000690000000
BFFE000001C0
06FE00000B40
007F0001BC00
002F807FF400
000FC002E000
000BD001C000
0003F0024000
0002F8030000
0000FC060000
0000BE080000
00007F480000
00003FE40000
00001FE00000
00000FD00000
00000BC00000
000003800000
000002000000
ENDCHAR
STARTCHAR W
ENCODING 87
SWIDTH 1120 0
DWIDTH 27 0
BBX 31 20 -1 -2
BITMAP
00000000000B9400
000000000001BFF8
0000000000003E00
0006000000003800
002C000000007000
01F800000000A000
6BFC00000000C000
01FC002800018000
00BD007D00024000
003F00AF40060000
002F414F80090000
001F820BD0080000
000FD907F0240000
000BF802F8300000
0007F401FE900000
0003E000FFC00000
0002D0007F400000
000180003F000000
000000002D000000
0000000008000000
ENDCHAR
STARTCHAR X
ENCODING 88
SWIDTH 868 0
DWIDTH 21 0
BBX 21 19 0 -1
BITMAP
0005B8000000
FFFFE0000000
05BFE0064000
001FF001F900
0007F401D000
0001FC020000
0000BE050000
00003F480000
00001FF00000
00000FF00000
00001FF40000
000061F80000
000090BD0000
0002403F0000
000A001F8000
007D000BD000
3FFD0007F400
006F42FFFE40
000140000540
ENDCHAR
STARTCHAR Y
ENCODING 89
SWIDTH 796 0
DWIDTH 19 0
BBX 22 23 0 -3
BITMAP
005B40000000
BFF800065000
0BF40001FFD0
01FC0000D000
007F00024000
002F80060000
000BE0180000
0003F8700000
0001FFD00000
00007F800000
00003F400000
00002F000000
00001F000000
00001F000000
00001F000000
00001F000000
00001F400000
00002F400000
00002F400000
00003F400000
0000BF800000
001FFFD00000
000005B40000
ENDCHAR
STARTCHAR Z
ENCODING 90
SWIDTH 627 0
DWIDTH 15 0
BBX 15 20 1 -3
BITMAP
A4005400
BFFFF400
B40FF000
901FD000
801FC000
802F8000
403F4000
007F0000
00BE0000
00BC0000
00F80040
01F40080
02F00090
03E00090
07D000A0
0BC001F0
0F8007F4
1F45BFF8
2FF94014
19000000
ENDCHAR
STARTCHAR bracketleft
ENCODING 91
SWIDTH 344 0
DWIDTH 8 0
BBX 8 25 0 -5
BITMAP
0BE5
0F81
0F00
1F00
1E00
2E00
2E00
2E00
3D00
3D00
3D00
7D00
7D00
7D00
7D00
7D00
BC00
BC00
BC00
BC00
BD00
BD00
BD00
BE00
2BFD
ENDCHAR
STARTCHAR backslash
ENCODING 92
SWIDTH 347 0
DWIDTH 8 0
BBX 8 26 0 -3
BITMAP
4000
9000
6000
3000
2400
1400
1800
0C00
0900
0600
0200
0300
0240
0180
00C0
0090
0060
0070
0030
0024
0018
000C
0009
0006
0002
0002
ENDCHAR
STARTCHAR bracketright
ENCODING 93
SWIDTH 334 0
DWIDTH 8 0
BBX 8 23 0 -6
BITMAP
0050
1BF4
11F4
00F8
00F8
00F8
00F8
00FC
00FC
00FC
00BD
00BD
00BD
00BD
00BE
00BE
00BE
00BE
00BE
00FD
0290
2900
5000
ENDCHAR
STARTCHAR asciicircum
ENCODING 94
SWIDTH 658 0
DWIDTH 16 0
BBX 14 6 1 13
BITMAP
00180000
003E0000
00BF8000
02EBF400
1E00BE00
A40006D0
ENDCHAR
STARTCHAR underscore
ENCODING 95
SWIDTH 678 0
DWIDTH 16 0
BBX 14 2 1 -8
BITMAP
15AABFF0
69550000
ENDCHAR
STARTCHAR grave
ENCODING 96
SWIDTH 278 0
DWIDTH 7 0
BBX 5 5 1 18
BITMAP
A000
7800
2D00
0B00
0240
ENDCHAR
STARTCHAR a
ENCODING 97
SWIDTH 527 0
DWIDTH 13 0
BBX 14 17 0 -2
BITMAP
02F90000
091F4000
1C07C000
1D03D000
1F43E000
1FC3E000
0B82F000
0002F000
06FFF400
2E02F400
7801F800
B800F800
BD06FC00
7FFDBC10
1BE07E50
00003FD0
00001F80
ENDCHAR
STARTCHAR b
ENCODING 98
SWIDTH 582 0
DWIDTH 14 0
BBX 16 27 -2 0
BITMAP
00100000
00600000
00E00000
17E00000
BFE00000
02E00000
01F00000
01F00000
01F00000
00F00000
00F00000
00F00000
00F00000
00F40000
00F40000
00F46F90
00F642F4
00B800FC
00B800BD
00B8007E
00B8007E
00BC007D
00BC007D
00BD00F8
00FF42F0
02FFFF80
0E940000
ENDCHAR
STARTCHAR c
ENCODING 99
SWIDTH 437 0
DWIDTH 11 0
BBX 10 13 0 2
BITMAP
01BE40
061FD0
1C0FE0
380BD0
740780
740000
B40050
B80020
7C0020
7D0030
2F81A0
0FFFD0
02FE00
ENDCHAR
STARTCHAR d
ENCODING 100
SWIDTH 523 0
DWIDTH 13 0
BBX 13 23 0 1
BITMAP
00001800
0001BC00
001EFC00
0000FC00
0000B800
0000B800
0000B800
0000B800
0000B800
0000B800
0000B800
0000B800
0000B800
0000B800
06FEB800
1F80B800
7E00B800
BD00B800
BD00B800
BD00B800
7E00B800
2F81FD00
06FFAA80
ENDCHAR
STARTCHAR e
ENCODING 101
SWIDTH 434 0
DWIDTH 10 0
BBX 10 13 0 1
BITMAP
01BE40
0782D0
1F01F0
3E00F0
7D01F0
7D02E0
BD0BC0
BFF920
7D0020
7E0020
2F0020
0BD090
01BE40
ENDCHAR
STARTCHAR f
ENCODING 102
SWIDTH 299 0
DWIDTH 7 0
BBX 13 32 -1 -5
BITMAP
0002F800
00090A00
00180700
00300B40
00706F40
00A1FF00
00A1FE00
00D0B800
00D00000
01E00000
01E05000
03FE4000
BFF00000
02E00000
02E00000
02E00000
02E00000
02E00000
02E00000
02F00000
02F00000
02F00000
02F00000
02F00000
02F00000
02F00000
02F00000
02F40000
02F80000
03FFD000
1E400000
10000000
ENDCHAR
STARTCHAR g
ENCODING 103
SWIDTH 567 0
DWIDTH 14 0
BBX 16 23 -1 -9
BITMAP
000006F4
000014BC
00BFB0FD
03F478B8
0BD02E00
0FC02F00
0FC01F00
0FC02F00
0BD03E00
03F0B800
00BF9000
01D00000
02D00000
007FA400
01E06F40
0B800BD0
2F0002E0
3E0002F0
7E0001E0
7F0002D0
3F400780
1FE01D00
02BF9000
ENDCHAR
STARTCHAR h
ENCODING 104
SWIDTH 566 0
DWIDTH 14 0
BBX 15 26 -1 0
BITMAP
00180000
00740000
07F40000
7BF40000
00F00000
00F00000
00F00000
00F00000
00E00000
00E00000
00E00000
00E00000
01E00000
01E00000
01D2F800
01D92E00
02E41F40
02F00F40
02E00F80
02E00F80
03D00F80
03D00F80
07C00F80
0BC01F80
BFE07EF4
00684000
ENDCHAR
STARTCHAR i
ENCODING 105
SWIDTH 301 0
DWIDTH 7 0
BBX 7 17 0 2
BITMAP
0780
0BD0
0780
0000
0190
BFD0
0FD0
0BC0
0BC0
0BC0
0BC0
0B80
0B80
0B80
0B80
0FD0
7FF8
ENDCHAR
STARTCHAR j
ENCODING 106
SWIDTH 367 0
DWIDTH 9 0
BBX 12 28 -3 -12
BITMAP
0003C0
0007D0
0003C0
000000
000050
00BFF4
000BF8
0002F8
0001FC
0000FC
0000BC
00007C
00007D
00003D
00003D
00003D
00003D
00002D
00002C
00002C
1B803C
3FD038
7FD074
B90070
A000A0
6001C0
280B40
0BF800
ENDCHAR
STARTCHAR k
ENCODING 107
SWIDTH 567 0
DWIDTH 14 0
BBX 16 27 -2 -3
BITMAP
00240000
06F40000
BFF40000
00F40000
00B40000
00B40000
00B40000
00740000
00740000
00780000
00780000
0078A400
00781FE0
00780D00
00782000
00789000
007ED000
007FE000
007DF014
007CF408
007CBC05
007D3E49
007D1FFC
007D06F4
007E0000
00BF0000
1AEBF800
ENDCHAR
STARTCHAR l
ENCODING 108
SWIDTH 354 0
DWIDTH 9 0
BBX 10 23 -1 0
BITMAP
001400
007400
01F400
07F400
6FF400
E6F400
02F400
01F400
01F400
00F400
00F400
00F800
00F800
00B800
00B800
00B800
007800
007C00
007C00
007C00
00BE00
0BFFD0
010000
ENDCHAR
STARTCHAR m
ENCODING 109
SWIDTH 708 0
DWIDTH 17 0
BBX 17 11 0 1
BITMAP
0280000000
6F8B92F400
0BD2F47D00
07D1F43D00
03C0F03D00
03C0F03D00
03C1F07D00
03D7F8BD00
2FF414BD00
0004000600
0000000040
ENDCHAR
STARTCHAR n
ENCODING 110
SWIDTH 584 0
DWIDTH 14 0
BBX 14 15 0 0
BITMAP
02400000
0B80BD00
2F83FF40
4B892F80
07D40FC0
03E00BC0
03E00BC0
02E00780
01E00B80
01E00B80
00E00B40
00E01F40
00F1FF40
0FFD1780
00040060
ENDCHAR
STARTCHAR o
ENCODING 111
SWIDTH 503 0
DWIDTH 12 0
BBX 12 11 0 2
BITMAP
01BF80
0B82F0
2F00B8
3E007D
7E003E
7E003E
7E002D
3F003D
2F4078
0BD0B0
01BE40
ENDCHAR
STARTCHAR p
ENCODING 112
SWIDTH 509 0
DWIDTH 12 0
BBX 12 23 0 -10
BITMAP
008000
02C000
1BC7E4
6BE4BC
03D03E
03C02E
03C02E
03C02E
03C03E
03C07C
03E0B4
03EF90
03D000
03D000
07D000
07D000
07D000
07D000
07D000
07E000
0BE000
6FF900
001500
ENDCHAR
STARTCHAR q
ENCODING 113
SWIDTH 505 0
DWIDTH 12 0
BBX 12 23 0 -10
BITMAP
0001F9
07F9F0
2F46E0
7D01E0
BC01E0
BC01E0
7D01E0
3F42E0
0BFAE0
0001E0
0001E0
0002E0
0002E0
0002E0
0002E0
0002E0
0002E0
0002E0
0002E0
0003E0
00BFF4
0001BE
000005
ENDCHAR
STARTCHAR r
ENCODING 114
SWIDTH 414 0
DWIDTH 10 0
BBX 12 16 0 0
BITMAP
0002F4
014D1C
07542D
7FA0FD
0BE0B8
07D000
07D000
07D000
03D000
03E000
03E000
03F000
02F000
02F400
07FF40
394000
ENDCHAR
STARTCHAR s
ENCODING 115
SWIDTH 482 0
DWIDTH 12 0
BBX 12 19 0 -3
BITMAP
000014
006FA4
01E0B0
02D030
03D020
02E010
01F400
00BD00
002F40
000FD0
0007F4
0101FC
0200BD
0A007E
1D003E
3D003D
9A007C
0281F4
006F90
ENDCHAR
STARTCHAR t
ENCODING 116
SWIDTH 434 0
DWIDTH 10 0
BBX 10 19 0 0
BITMAP
000C00
001C00
002800
003800
00B400
02FF80
7FF400
07E000
07D000
0BC000
0F8000
0F8000
0F4000
1F4000
0F40E0
0F80F0
0BC070
03E050
00BF40
ENDCHAR
STARTCHAR u
ENCODING 117
SWIDTH 744 0
DWIDTH 18 0
BBX 18 13 0 0
BITMAP
008001A000
01D07FF000
1BD001F000
6BE000F000
02E000F000
02F000F400
01F000F400
01F401B800
00F8017800
00FC027FE0
00BE092500
003FF80000
000BE00000
ENDCHAR
STARTCHAR v
ENCODING 118
SWIDTH 600 0
DWIDTH 14 0
BBX 14 15 0 -1
BITMAP
00240000
06E00000
6FF00000
03F00000
02F42FE0
00F80340
00BC0200
007E0500
002F0800
001F4800
000F9400
0007E000
0003E000
0001D000
00008000
ENDCHAR
STARTCHAR w
ENCODING 119
SWIDTH 745 0
DWIDTH 18 0
BBX 18 12 0 -1
BITMAP
00600016A0
17D0140740
BFD02C0900
0BE03E0800
07F0BF0C00
03F49F9800
02F94BE400
01FE07F000
00FE02E000
007D008000
0038000000
0024000000
ENDCHAR
STARTCHAR x
ENCODING 120
SWIDTH 548 0
DWIDTH 13 0
BBX 14 14 0 1
BITMAP
005B0000
FFF80000
0BF44000
02F87F90
00FC2800
00BDA000
003F8000
001F4000
000F8000
001FC000
0067D000
06C2F400
2A92FF40
001E4000
ENDCHAR
STARTCHAR y
ENCODING 121
SWIDTH 659 0
DWIDTH 16 0
BBX 16 24 0 -11
BITMAP
00180000
00B40005
1BD03FFD
BFC007F4
0FC002F4
0BC002F4
0BD002F0
07D002F0
03E003F0
02F407F0
01FD1EE0
00BFF5E0
001F92D0
000002D0
000002C0
00000380
00000340
00000740
00B80600
03FE0D00
067D1C00
05007400
0241D000
00BE4000
ENDCHAR
STARTCHAR z
ENCODING 122
SWIDTH 460 0
DWIDTH 11 0
BBX 11 14 0 0
BITMAP
394000
7FBFE0
7407C0
600B80
501F40
403E00
007D00
00F800
02F400
07E004
0FD008
1FC06C
3FFFFC
550000
ENDCHAR
STARTCHAR braceleft
ENCODING 123
SWIDTH 460 0
DWIDTH 11 0
BBX 11 30 0 -7
BITMAP
000BE0
003C14
007800
00B400
00B800
00B800
00BC00
00BD00
007D00
007D00
007D00
00BD00
01F800
1BD000
7D0000
078000
01E000
00B400
007800
007C00
007C00
007C00
00BC00
00BC00
00BC00
00BD00
00BD04
007E18
003FF4
001BE0
ENDCHAR
STARTCHAR bar
ENCODING 124
SWIDTH 368 0
DWIDTH 9 0
BBX 3 26 3 -5
BITMAP
50
50
50
50
60
60
60
60
60
20
20
20
20
20
20
20
20
20
20
20
20
20
20
24
24
10
ENDCHAR
STARTCHAR braceright
ENCODING 125
SWIDTH 476 0
DWIDTH 11 0
BBX 11 25 0 -6
BITMAP
1BE400
60FD00
807E00
007F00
003F00
003F00
002F00
002F00
000F00
000294
000074
0001E0
0002D0
0002E0
0001F0
0001F4
0000F4
0000B8
0000BC
00007C
00007C
000078
0000B0
0006D0
007E00
ENDCHAR
STARTCHAR asciitilde
ENCODING 126
SWIDTH 733 0
DWIDTH 18 0
BBX 16 5 1 4
BITMAP
00000005
06F9001C
146F9078
5007FFE0
40006F80
ENDCHAR
STARTCHAR nonbreakingspace
ENCODING 160
SWIDTH 270 0
DWIDTH 6 0
BBX 1 1 0 0
BITMAP
00
ENDCHAR
STARTCHAR exclamdown
ENCODING 161
SWIDTH 247 0
DWIDTH 6 0
BBX 4 26 1 -3
BITMAP
78
BD
78
00
00
00
00
24
28
28
28
2C
2C
2C
3D
3D
3D
7D
7E
7E
7E
BE
BE
BE
BD
38
ENDCHAR
STARTCHAR cent
ENCODING 162
SWIDTH 799 0
DWIDTH 19 0
BBX 11 21 4 -5
BITMAP
010000
010000
014000
01FF80
07C1B0
1E8078
3D50BC
7C20FC
B820B4
F82000
F81400
F80800
FD0804
7E0808
3F9574
1FFFE0
01BF40
000200
000140
000080
000080
ENDCHAR
STARTCHAR sterling
ENCODING 163
SWIDTH 799 0
DWIDTH 19 0
BBX 14 22 3 -3
BITMAP
001BE000
00A47C00
02C02E00
07807E00
0B80FE00
0B81FD00
0FC0B800
0BD00000
0BE00000
07F14000
07FD0000
6AFC0000
01FD0000
00BE0000
007F0000
003F0000
002F0080
001F0020
1BFE0020
202A9090
60606F40
2F400000
ENDCHAR
STARTCHAR currency
ENCODING 164
SWIDTH 732 0
DWIDTH 18 0
BBX 15 18 1 0
BITMAP
00000400
00000C00
40002800
746FF800
1F905E00
0D000340
28000180
34000180
30000180
30000180
34000200
28000900
0E406D00
07FF9740
0B0000A0
0E000028
1C000000
04000000
ENDCHAR
STARTCHAR yen
ENCODING 165
SWIDTH 799 0
DWIDTH 19 0
BBX 18 25 1 -4
BITMAP
0006400000
BFFD000090
0BFC005B40
02FD03F800
00BF007000
003F405000
002FC08000
000FD14000
000BF20000
0003FE0000
0002FD0000
0001FD0000
0000FD0000
00BFFFFF80
0000BC0000
0001FFF400
007AFD0000
0000FC0000
0000FC0000
0000FC0000
0000FC0000
0001FE0000
0007FFE000
006E500000
0050000000
ENDCHAR
STARTCHAR brokenbar
ENCODING 166
SWIDTH 341 0
DWIDTH 8 0
BBX 2 28 3 -6
BITMAP
50
50
50
50
50
50
50
60
60
50
00
00
00
50
60
60
60
60
60
60
60
60
60
60
60
60
60
50
ENDCHAR
STARTCHAR section
ENCODING 167
SWIDTH 546 0
DWIDTH 13 0
BBX 11 27 1 -7
BITMAP
00BF80
0781F0
0E00B8
1E00F8
2E01F8
2F40B4
1FD000
0FF400
0BFE00
29FF80
741FE0
B402F4
B800BC
BD002C
7F8028
1FF424
07FD60
00BF80
001BD0
0002F0
0000B4
000034
000024
03C020
07E020
07F450
01FE00
ENDCHAR
STARTCHAR dieresis
ENCODING 168
SWIDTH 393 0
DWIDTH 9 0
BBX 6 3 2 16
BITMAP
7800
BDE0
79E0
ENDCHAR
STARTCHAR copyright
ENCODING 169
SWIDTH 1023 0
DWIDTH 25 0
BBX 23 22 1 -4
BITMAP
0001BFE90000
001E4016D000
00A000007800
034000400B00
0A0000800280
1801BFC000D0
240781C000A0
300F00800070
601E00100034
902E00000034
902E00000034
901F00140034
900F40200030
9007D0600070
6001BF4000A0
3000000000D0
240000000280
1C0000000700
060000001D00
02D00000B400
0079405B8000
0006BFE40000
ENDCHAR
STARTCHAR ordfeminine
ENCODING 170
SWIDTH 558 0
DWIDTH 13 0
BBX 12 12 1 8
BITMAP
1BE000
747800
B41C00
B81D00
781E00
06FE00
2D1E00
780E08
741F09
782F08
7FE748
1F92F4
ENDCHAR
STARTCHAR guillemotleft
ENCODING 171
SWIDTH 608 0
DWIDTH 15 0
BBX 13 21 1 -6
BITMAP
00000200
00000200
00010600
00020900
000A0D00
001C1C00
00782800
01F07400
0BD0F000
7F83F400
BF42F800
2FC0BD00
0BE03E00
02F41F00
00BC0B00
002D0740
000F0340
00074140
0002C040
00009000
00001000
ENDCHAR
STARTCHAR logicalnot
ENCODING 172
SWIDTH 616 0
DWIDTH 15 0
BBX 13 5 1 6
BITMAP
BFFEAF40
00000280
00000280
00000240
00000140
ENDCHAR
STARTCHAR uni00AD
ENCODING 173
SWIDTH 436 0
DWIDTH 10 0
BBX 8 2 1 5
BITMAP
5001
6FFE
ENDCHAR
STARTCHAR registered
ENCODING 174
SWIDTH 1048 0
DWIDTH 25 0
BBX 23 22 1 -5
BITMAP
0001AFF90000
001E5005A000
00A400001900
036FFFE40240
0907E0BC0090
1802D03D0020
3401D03E0014
7001D03D0008
A001D07C0008
9001D2F00008
9001FF800008
9002D7802008
9002E3D02008
A002E2E02008
7007F4B82014
347EBE1F9020
2C0001000020
0E0000000080
078000000240
01E400001900
002E5006E000
0001AFF90000
ENDCHAR
STARTCHAR macron
ENCODING 175
SWIDTH 382 0
DWIDTH 9 0
BBX 7 1 1 19
BITMAP
6FF8
ENDCHAR
STARTCHAR degree
ENCODING 176
SWIDTH 346 0
DWIDTH 8 0
BBX 6 6 1 17
BITMAP
1F80
60A0
9030
9030
60A0
2F80
ENDCHAR
STARTCHAR plusminus
ENCODING 177
SWIDTH 580 0
DWIDTH 14 0
BBX 12 9 1 3
BITMAP
000400
001800
001800
002800
3FAEA9
000800
000800
000400
BFAAA0
ENDCHAR
STARTCHAR twosuperior
ENCODING 178
SWIDTH 365 0
DWIDTH 9 0
BBX 8 13 0 8
BITMAP
02F8
082E
001F
001F
002E
003C
00A0
0640
7D00
1F46
02F8
00B0
0010
ENDCHAR
STARTCHAR threesuperior
ENCODING 179
SWIDTH 371 0
DWIDTH 9 0
BBX 9 12 0 9
BITMAP
2FF000
2FD000
208000
019000
03F800
007E00
001F40
400F40
400F40
500F00
346D00
1BE400
ENDCHAR
STARTCHAR acute
ENCODING 180
SWIDTH 234 0
DWIDTH 6 0
BBX 4 5 1 18
BITMAP
09
2C
38
70
80
ENDCHAR
STARTCHAR mu
ENCODING 181
SWIDTH 634 0
DWIDTH 15 0
BBX 14 20 1 -7
BITMAP
F4001000
F002F000
F002F000
F001F000
F400F400
F400F400
F800F450
FC00F820
BD01F820
BB467D20
B5B92FF0
B8000BD0
B8000000
B8000000
B8000000
BC000000
BC000000
BD000000
7D000000
7D000000
ENDCHAR
STARTCHAR paragraph
ENCODING 182
SWIDTH 707 0
DWIDTH 17 0
BBX 17 29 0 -9
BITMAP
0000000600
000005B800
016AFFE000
0BFE03D000
3FFE02C000
BFFE02C000
FFFE03C000
FFFD038000
FFFD038000
BFFD038000
3FFD038000
0BFD038000
00BD038000
003D038000
002D038000
002E03C000
001E03C000
001E03C000
001E03C000
001E03D000
001E03D000
001F03D000
001F03E000
001F03F800
001F03FF80
001F000000
003F000000
01F9000000
1E40000000
ENDCHAR
STARTCHAR periodcentered
ENCODING 183
SWIDTH 238 0
DWIDTH 6 0
BBX 4 4 1 7
BITMAP
78
BD
BD
78
ENDCHAR
STARTCHAR cedilla
ENCODING 184
SWIDTH 332 0
DWIDTH 8 0
BBX 6 8 1 -6
BITMAP
0500
0800
0A40
0FD0
02E0
41E0
52D0
2F40
ENDCHAR
STARTCHAR onesuperior
ENCODING 185
SWIDTH 336 0
DWIDTH 8 0
BBX 8 11 0 10
BITMAP
0020
0070
02E0
19E0
00E0
00E0
00E0
01E0
02F0
6FF4
006D
ENDCHAR
STARTCHAR ordmasculine
ENCODING 186
SWIDTH 503 0
DWIDTH 12 0
BBX 12 11 0 7
BITMAP
01BE40
0907E0
2400F8
30007C
30002D
74002D
34001D
3C001C
1E0028
0B9070
01BF80
ENDCHAR
STARTCHAR guillemotright
ENCODING 187
SWIDTH 778 0
DWIDTH 19 0
BBX 17 22 1 -6
BITMAP
0004000000
0005000000
0003000000
8002800000
6000E00000
3800780000
1E001F4000
0BE007D000
02FE41FD00
007FF47F40
000FD1FD00
001F47F400
007C0F8000
00F02E0000
02C0780000
0740F00000
0A01D00000
1C02C00000
2403400000
1003000000
0006000000
0005000000
ENDCHAR
STARTCHAR onequarter
ENCODING 188
SWIDTH 876 0
DWIDTH 21 0
BBX 21 23 0 -1
BITMAP
000000006000
00200000C000
007000024000
02E000060000
19E0001C0000
00E000340000
00E000A00000
00E001C00000
01E003420000
02F00A070000
6FF4280B0000
006D701F0000
0000D02B4000
0002805B4400
000600874800
000C01479C00
00240207FC00
00600AAFFC00
01C00543C000
03400003E000
0A000007F400
0800002FFF40
000000140000
ENDCHAR
STARTCHAR onehalf
ENCODING 189
SWIDTH 762 0
DWIDTH 18 0
BBX 18 23 0 -1
BITMAP
0000000060
00200000C0
0070000240
02E0000600
19E0001C00
00E0003400
00E000A000
00E001C000
01E0034000
02F00A0000
6FF4287E40
006D714BC0
0000D003D0
00028003D0
00060007C0
000C000B40
0024002D00
0060019000
01C00B4000
034002E580
0A00007F40
0800002D00
0000000400
ENDCHAR
STARTCHAR threequarters
ENCODING 190
SWIDTH 922 0
DWIDTH 22 0
BBX 22 23 0 -1
BITMAP
000000000800
2FF000002400
2FD000006000
20800000C000
019000024000
03F8000A0000
007E001C0000
001F40340000
400F40A08000
400F4180C000
500F0702C000
346D0D03D000
1BE4280AD000
00007015D000
0000D021E100
00024051E700
00060080FF40
000C01EBFF40
00240050F400
00A00000F800
01800000FD00
02400007FFE0
000000050000
ENDCHAR
STARTCHAR questiondown
ENCODING 191
SWIDTH 571 0
DWIDTH 14 0
BBX 14 22 0 -3
BITMAP
000B8000
001FD000
001FD000
000B8000
00000000
00090000
00020000
00020000
00030000
000A0000
002C0000
01F40000
07E0BE00
1FC1FF80
2F81FFC0
7F40BFD0
7F401FD0
7F8003C0
3F800380
2FD00700
0BF41900
01BFE000
ENDCHAR
STARTCHAR Agrave
ENCODING 192
SWIDTH 784 0
DWIDTH 19 0
BBX 19 27 0 -2
BITMAP
00D0000000
00F4000000
007C000000
001D000000
0006000000
0000240000
0006F80000
00BBFC0000
0002FD0000
00023E0000
00022F0000
00051F4000
00080F8000
00080BC000
00180BD000
002E47E000
0031BFF000
006007F400
009002F800
00C000FC00
028000BD00
0740007F00
FF80007F40
06E0003F80
0010002FE0
0000007FFC
0000039400
ENDCHAR
STARTCHAR Aacute
ENCODING 193
SWIDTH 784 0
DWIDTH 19 0
BBX 19 28 0 -2
BITMAP
0000180000
0000340000
0000B00000
0000D00000
0001400000
0000000000
0000240000
0006F80000
00BBFC0000
0002FD0000
00023E0000
00022F0000
00051F4000
00080F8000
00080BC000
00180BD000
002E47E000
0031BFF000
006007F400
009002F800
00C000FC00
028000BD00
0740007F00
FF80007F40
06E0003F80
0010002FE0
0000007FFC
0000039400
ENDCHAR
STARTCHAR Acircumflex
ENCODING 194
SWIDTH 784 0
DWIDTH 19 0
BBX 19 28 0 -2
BITMAP
0000600000
0000F40000
00026D0000
00050B8000
001801A000
0050000000
0000240000
0006F80000
00BBFC0000
0002FD0000
00023E0000
00022F0000
00051F4000
00080F8000
00080BC000
00180BD000
002E47E000
0031BFF000
006007F400
009002F800
00C000FC00
028000BD00
0740007F00
FF80007F40
06E0003F80
0010002FE0
0000007FFC
0000039400
ENDCHAR
STARTCHAR Atilde
ENCODING 195
SWIDTH 784 0
DWIDTH 19 0
BBX 19 27 0 -2
BITMAP
001E400000
0017E14000
0041FF4000
00006E0000
0000000000
0000240000
0006F80000
00BBFC0000
0002FD0000
00023E0000
00022F0000
00051F4000
00080F8000
00080BC000
00180BD000
002E47E000
0031BFF000
006007F400
009002F800
00C000FC00
028000BD00
0740007F00
FF80007F40
06E0003F80
0010002FE0
0000007FFC
0000039400
ENDCHAR
STARTCHAR Adieresis
ENCODING 196
SWIDTH 784 0
DWIDTH 19 0
BBX 19 26 0 -2
BITMAP
001F4B4000
002F8F4000
001F4B0000
0000000000
0000240000
0006F80000
00BBFC0000
0002FD0000
00023E0000
00022F0000
00051F4000
00080F8000
00080BC000
00180BD000
002E47E000
0031BFF000
006007F400
009002F800
00C000FC00
028000BD00
0740007F00
FF80007F40
06E0003F80
0010002FE0
0000007FFC
0000039400
ENDCHAR
STARTCHAR Aring
ENCODING 197
SWIDTH 784 0
DWIDTH 19 0
BBX 19 28 0 -2
BITMAP
0001F80000
0006090000
0009020000
000A0A0000
0007FD0000
0002F40000
0000240000
0006F80000
00BBFC0000
0002FD0000
00023E0000
00022F0000
00051F4000
00080F8000
00080BC000
00180BD000
002E47E000
0031BFF000
006007F400
009002F800
00C000FC00
028000BD00
0740007F00
FF80007F40
06E0003F80
0010002FE0
0000007FFC
0000039400
ENDCHAR
STARTCHAR AE
ENCODING 198
SWIDTH 1172 0
DWIDTH 28 0
BBX 28 24 0 -4
BITMAP
00000000001A00
0000000006FE00
00000016BE5A00
00002FFFD00500
0000017FC00500
0000006BC00400
00000057C00000
00000087D00000
00000187D00400
00000207E02400
00000203E0B400
00000503FFF400
00000803F41805
00001807F40805
00003FFFF40409
00007403F8000E
0000D002F8001E
00018002FC007F
00030002FD06FE
000A0002FFBA40
001C0002FE4000
00780003E00000
06F8001A000000
BEAF8020000000
ENDCHAR
STARTCHAR Ccedilla
ENCODING 199
SWIDTH 742 0
DWIDTH 18 0
BBX 18 30 0 -10
BITMAP
0000000200
0000000200
0000000600
001AFFAF00
01BD01BF00
07E0000B00
1FC0000240
2F40000080
7F00000000
7F00000000
BE00000000
BE00000000
FE00000000
BE00000010
BF00000020
BF40000050
7F80000050
2FC0000080
0FE0000140
07F8000600
00BF406800
001AFF9000
0000140000
0000200000
00003E0000
00002F4000
0000078000
0001078000
00014B4000
0000BD0000
ENDCHAR
STARTCHAR Egrave
ENCODING 200
SWIDTH 557 0
DWIDTH 13 0
BBX 14 28 0 -3
BITMAP
0A000000
0B800000
02D00000
00A00000
00240000
00000000
5555AF00
2FE40300
0FD00200
0BD00100
0BD00000
07E00000
07E00000
03E04000
03E08000
03FFC000
02E1C000
02E08000
02F08000
01F00000
01F00000
01F00000
01F00000
00F40050
00F40090
01F802C0
7FFFBFC0
00055A40
ENDCHAR
STARTCHAR Eacute
ENCODING 201
SWIDTH 557 0
DWIDTH 13 0
BBX 14 28 0 -3
BITMAP
00009000
0001D000
00038000
00070000
00090000
00000000
5555AF00
2FE40300
0FD00200
0BD00100
0BD00000
07E00000
07E00000
03E04000
03E08000
03FFC000
02E1C000
02E08000
02F08000
01F00000
01F00000
01F00000
01F00000
00F40050
00F40090
01F802C0
7FFFBFC0
00055A40
ENDCHAR
STARTCHAR Ecircumflex
ENCODING 202
SWIDTH 557 0
DWIDTH 13 0
BBX 14 29 0 -3
BITMAP
00090000
001F0000
0027D000
0090B400
02401D00
05000000
00000000
5555AF00
2FE40300
0FD00200
0BD00100
0BD00000
07E00000
07E00000
03E04000
03E08000
03FFC000
02E1C000
02E08000
02F08000
01F00000
01F00000
01F00000
01F00000
00F40050
00F40090
01F802C0
7FFFBFC0
00055A40
ENDCHAR
STARTCHAR Edieresis
ENCODING 203
SWIDTH 557 0
DWIDTH 13 0
BBX 14 26 0 -3
BITMAP
02E1E000
03F2F000
02E1E000
00000000
5555AF00
2FE40300
0FD00200
0BD00100
0BD00000
07E00000
07E00000
03E04000
03E08000
03FFC000
02E1C000
02E08000
02F08000
01F00000
01F00000
01F00000
01F00000
00F40050
00F40090
01F802C0
7FFFBFC0
00055A40
ENDCHAR
STARTCHAR Igrave
ENCODING 204
SWIDTH 438 0
DWIDTH 11 0
BBX 13 32 -1 -5
BITMAP
02800000
02E00000
00B40000
002C0000
00090000
00000000
00000000
6AAAAF80
06FFD000
00FF4000
00BE0000
00BE0000
00BD0000
00BD0000
00BD0000
00BC0000
00BC0000
00BC0000
00B80000
00B80000
00B80000
00B80000
00B40000
00B40000
00B40000
00B40000
00B40000
00B40000
00F80000
02FFD000
6E400000
50000000
ENDCHAR
STARTCHAR Iacute
ENCODING 205
SWIDTH 438 0
DWIDTH 11 0
BBX 13 31 -1 -5
BITMAP
00003000
0000A000
0001D000
00028000
00020000
00000000
6AAAAF80
06FFD000
00FF4000
00BE0000
00BE0000
00BD0000
00BD0000
00BD0000
00BC0000
00BC0000
00BC0000
00B80000
00B80000
00B80000
00B80000
00B40000
00B40000
00B40000
00B40000
00B40000
00B40000
00F80000
02FFD000
6E400000
50000000
ENDCHAR
STARTCHAR Icircumflex
ENCODING 206
SWIDTH 438 0
DWIDTH 11 0
BBX 13 32 -1 -5
BITMAP
00050000
000F4000
0026D000
0090B800
01401A00
05000000
00000000
6AAAAF80
06FFD000
00FF4000
00BE0000
00BE0000
00BD0000
00BD0000
00BD0000
00BC0000
00BC0000
00BC0000
00B80000
00B80000
00B80000
00B80000
00B40000
00B40000
00B40000
00B40000
00B40000
00B40000
00F80000
02FFD000
6E400000
50000000
ENDCHAR
STARTCHAR Idieresis
ENCODING 207
SWIDTH 438 0
DWIDTH 11 0
BBX 13 30 -1 -5
BITMAP
01E1E000
03F2F000
02E1E000
00000000
00000000
6AAAAF80
06FFD000
00FF4000
00BE0000
00BE0000
00BD0000
00BD0000
00BD0000
00BC0000
00BC0000
00BC0000
00B80000
00B80000
00B80000
00B80000
00B40000
00B40000
00B40000
00B40000
00B40000
00B40000
00F80000
02FFD000
6E400000
50000000
ENDCHAR
STARTCHAR Eth
ENCODING 208
SWIDTH 730 0
DWIDTH 18 0
BBX 18 20 0 -5
BITMAP
156BFE9000
1BF81BF800
01F401FF00
00F400BF80
00F4003FD0
00F4002FD0
00F4002FE0
01F5401FE0
6BFE401FE0
55F4002FE0
01F4002FD0
01F4003FC0
01F8007F40
01F800BE00
01F802F400
02FD1B8000
03FFA40000
0B90000000
2400000000
4000000000
ENDCHAR
STARTCHAR Ntilde
ENCODING 209
SWIDTH 799 0
DWIDTH 19 0
BBX 19 28 0 -5
BITMAP
0000790000
00005F8500
000103FD00
000000B800
0000000000
0040000014
FFF400FFF8
07FD001B80
02FF400340
02AFD00300
024FF40300
0247FC0200
0141FF0200
0140BF8200
01403FE600
01401FFE00
014007FE00
014002FE00
014000BE00
0140003E00
0140001E00
0140000500
0140000000
0280000000
0280000000
0BD0000000
BFF4000000
0019000000
ENDCHAR
STARTCHAR Ograve
ENCODING 210
SWIDTH 747 0
DWIDTH 18 0
BBX 18 25 0 1
BITMAP
00A0000000
0078000000
002D000000
000B000000
0002400000
0000000000
0000000000
001BFA4000
01F41BE000
078001FD00
1F00007F00
3E00003F80
7D00001FC0
BD00000FD0
BC00000FE0
FC00000BE0
BD00000BE0
BD00000BE0
BE00000BD0
7E00000BC0
3F40000F80
1F80002F00
07E0007D00
01F901F400
001BFE4000
ENDCHAR
STARTCHAR Oacute
ENCODING 211
SWIDTH 747 0
DWIDTH 18 0
BBX 18 24 0 1
BITMAP
0000180000
0000340000
0000B00000
0000D00000
0001400000
0000000000
001BFA4000
01F41BE000
078001FD00
1F00007F00
3E00003F80
7D00001FC0
BD00000FD0
BC00000FE0
FC00000BE0
BD00000BE0
BD00000BE0
BE00000BD0
7E00000BC0
3F40000F80
1F80002F00
07E0007D00
01F901F400
001BFE4000
ENDCHAR
STARTCHAR Ocircumflex
ENCODING 212
SWIDTH 747 0
DWIDTH 18 0
BBX 18 24 0 1
BITMAP
0001800000
0002E00000
0006780000
00181E0000
0020068000
0080000000
001BFA4000
01F41BE000
078001FD00
1F00007F00
3E00003F80
7D00001FC0
BD00000FD0
BC00000FE0
FC00000BE0
BD00000BE0
BD00000BE0
BE00000BD0
7E00000BC0
3F40000F80
1F80002F00
07E0007D00
01F901F400
001BFE4000
ENDCHAR
STARTCHAR Otilde
ENCODING 213
SWIDTH 747 0
DWIDTH 18 0
BBX 18 23 0 1
BITMAP
000B800000
0022E48000
0010BF8000
00002F4000
0000000000
001BFA4000
01F41BE000
078001FD00
1F00007F00
3E00003F80
7D00001FC0
BD00000FD0
BC00000FE0
FC00000BE0
BD00000BE0
BD00000BE0
BE00000BD0
7E00000BC0
3F40000F80
1F80002F00
07E0007D00
01F901F400
001BFE4000
ENDCHAR
STARTCHAR Odieresis
ENCODING 214
SWIDTH 747 0
DWIDTH 18 0
BBX 18 23 0 1
BITMAP
001F0E0000
002F5F4000
001E0E0000
0000000000
0000000000
001BFA4000
01F41BE000
078001FD00
1F00007F00
3E00003F80
7D00001FC0
BD00000FD0
BC00000FE0
FC00000BE0
BD00000BE0
BD00000BE0
BE00000BD0
7E00000BC0
3F40000F80
1F80002F00
07E0007D00
01F901F400
001BFE4000
ENDCHAR
STARTCHAR multiply
ENCODING 215
SWIDTH 541 0
DWIDTH 13 0
BBX 11 14 1 0
BITMAP
000018
000070
0000D0
180240
0A0A00
02E800
00B400
00DA00
024280
060050
1C0000
340000
A00000
400000
ENDCHAR
STARTCHAR Oslash
ENCODING 216
SWIDTH 747 0
DWIDTH 18 0
BBX 18 23 0 -1
BITMAP
0000000040
0000000180
0000000240
001BFA4A00
01F41BEC00
078001FD00
1F0000BF00
3E0001FF80
7D00035FC0
BD00090FD0
BC00280FE0
FC00700BE0
BD00D00BE0
BD02400BE0
BD0A000BD0
7E1C000BC0
3F74000F80
1FD0002F00
07E0007D00
03F901F400
0A1BFE4000
1800000000
2000000000
ENDCHAR
STARTCHAR Ugrave
ENCODING 217
SWIDTH 690 0
DWIDTH 17 0
BBX 18 25 0 1
BITMAP
0007400000
0007C00000
0001E00000
0000740000
0000180000
0000000000
0000000000
0000100000
0006E00000
05BF400000
FFFD000000
0BFC2FAAA0
07F801BC00
03F4002800
03F4001800
03F4001800
03F4001800
03F4001800
02F4001800
02F8001400
01F8001400
00FC002000
007E005000
002F818000
0006FE0000
ENDCHAR
STARTCHAR Uacute
ENCODING 218
SWIDTH 690 0
DWIDTH 17 0
BBX 18 22 0 1
BITMAP
0000000900
0000002C00
0000003800
0000006000
0000108000
0006E00000
05BF400000
FFFD000000
0BFC2FAAA0
07F801BC00
03F4002800
03F4001800
03F4001800
03F4001800
03F4001800
02F4001800
02F8001400
01F8001400
00FC002000
007E005000
002F818000
0006FE0000
ENDCHAR
STARTCHAR Ucircumflex
ENCODING 219
SWIDTH 690 0
DWIDTH 17 0
BBX 18 23 0 1
BITMAP
0000180000
00003D0000
00009B4000
000142E000
0006006800
0014100000
0006E00000
05BF400000
FFFD000000
0BFC2FAAA0
07F801BC00
03F4002800
03F4001800
03F4001800
03F4001800
03F4001800
02F4001800
02F8001400
01F8001400
00FC002000
007E005000
002F818000
0006FE0000
ENDCHAR
STARTCHAR Udieresis
ENCODING 220
SWIDTH 690 0
DWIDTH 17 0
BBX 18 23 0 1
BITMAP
0002D2D000
0007E3E000
0003D2D000
0000000000
0000000000
0000100000
0006E00000
05BF400000
FFFD000000
0BFC2FAAA0
07F801BC00
03F4002800
03F4001800
03F4001800
03F4001800
03F4001800
02F4001800
02F8001400
01F8001400
00FC002000
007E005000
002F818000
0006FE0000
ENDCHAR
STARTCHAR Yacute
ENCODING 221
SWIDTH 796 0
DWIDTH 19 0
BBX 22 29 0 -3
BITMAP
000000090000
0000002C0000
000000340000
000000A00000
000000800000
000000000000
005B40000000
BFF800065000
0BF40001FFD0
01FC0000D000
007F00024000
002F80060000
000BE0180000
0003F8700000
0001FFD00000
00007F800000
00003F400000
00002F000000
00001F000000
00001F000000
00001F000000
00001F000000
00001F400000
00002F400000
00002F400000
00003F400000
0000BF800000
001FFFD00000
000005B40000
ENDCHAR
STARTCHAR Thorn
ENCODING 222
SWIDTH 479 0
DWIDTH 12 0
BBX 11 24 1 -2
BITMAP
FFF400
2F8000
0F0000
0F0000
0F4000
0FFE40
0F47E0
0E02F8
0E01FC
0E00FC
0E00FC
1E01F8
1E07F0
1FBF80
1E0000
1E0000
1E0000
1E0000
1E0000
2E0000
2F0000
7F4000
FFE000
005000
ENDCHAR
STARTCHAR germandbls
ENCODING 223
SWIDTH 591 0
DWIDTH 14 0
BBX 15 26 -1 -3
BITMAP
02F90000
0A0B4000
1803C000
2802D000
2402D000
3402D000
3802C000
28034000
2C0A0000
2C140000
1DBFA400
1E06FE00
1E003FC0
0F000FE0
0F4007F4
0B8002F8
0BC001F8
07C000B8
03D000B8
03E00078
02F1D074
02F6F070
03F9F890
0B94BE40
28000000
50000000
ENDCHAR
STARTCHAR agrave
ENCODING 224
SWIDTH 527 0
DWIDTH 13 0
BBX 14 23 0 -2
BITMAP
34000000
3D000000
1F000000
07400000
01800000
00000000
02F90000
091F4000
1C07C000
1D03D000
1F43E000
1FC3E000
0B82F000
0002F000
06FFF400
2E02F400
7801F800
B800F800
BD06FC00
7FFDBC10
1BE07E50
00003FD0
00001F80
ENDCHAR
STARTCHAR aacute
ENCODING 225
SWIDTH 527 0
DWIDTH 13 0
BBX 14 23 0 -2
BITMAP
00024000
00074000
000E0000
001C0000
00240000
00000000
02F90000
091F4000
1C07C000
1D03D000
1F43E000
1FC3E000
0B82F000
0002F000
06FFF400
2E02F400
7801F800
B800F800
BD06FC00
7FFDBC10
1BE07E50
00003FD0
00001F80
ENDCHAR
STARTCHAR acircumflex
ENCODING 226
SWIDTH 527 0
DWIDTH 13 0
BBX 14 22 0 -2
BITMAP
00240000
007C0000
009F4000
0242D000
09007400
16F90000
091F4000
1C07C000
1D03D000
1F43E000
1FC3E000
0B82F000
0002F000
06FFF400
2E02F400
7801F800
B800F800
BD06FC00
7FFDBC10
1BE07E50
00003FD0
00001F80
ENDCHAR
STARTCHAR atilde
ENCODING 227
SWIDTH 527 0
DWIDTH 13 0
BBX 14 21 0 -2
BITMAP
02E00000
057D1400
041FF000
0006D000
02F90000
091F4000
1C07C000
1D03D000
1F43E000
1FC3E000
0B82F000
0002F000
06FFF400
2E02F400
7801F800
B800F800
BD06FC00
7FFDBC10
1BE07E50
00003FD0
00001F80
ENDCHAR
STARTCHAR adieresis
ENCODING 228
SWIDTH 527 0
DWIDTH 13 0
BBX 14 21 0 -2
BITMAP
07800000
0BDE0000
079E0000
00000000
02F90000
091F4000
1C07C000
1D03D000
1F43E000
1FC3E000
0B82F000
0002F000
06FFF400
2E02F400
7801F800
B800F800
BD06FC00
7FFDBC10
1BE07E50
00003FD0
00001F80
ENDCHAR
STARTCHAR aring
ENCODING 229
SWIDTH 527 0
DWIDTH 13 0
BBX 14 24 0 -2
BITMAP
00BD0000
01824000
02018000
03824000
02FF4000
00BD0000
00000000
02F90000
091F4000
1C07C000
1D03D000
1F43E000
1FC3E000
0B82F000
0002F000
06FFF400
2E02F400
7801F800
B800F800
BD06FC00
7FFDBC10
1BE07E50
00003FD0
00001F80
ENDCHAR
STARTCHAR ae
ENCODING 230
SWIDTH 700 0
DWIDTH 17 0
BBX 17 16 0 -2
BITMAP
000007E400
0000147D00
0BD0402E00
2875401E00
342A002E00
3D1E007D00
2D2E06F400
01BFFE8000
0A5F000000
2C0F000100
740F400140
B40FC00140
B41FE00340
7877F90B00
3FE1FFFD00
1B806FE400
ENDCHAR
STARTCHAR ccedilla
ENCODING 231
SWIDTH 437 0
DWIDTH 11 0
BBX 10 20 0 -5
BITMAP
01BE40
061FD0
1C0FE0
380BD0
740780
740000
B40050
B80020
7C0020
7D0030
2F81A0
0FFFC0
02FE00
002000
003800
003F00
000B40
010740
024B00
00BD00
ENDCHAR
STARTCHAR egrave
ENCODING 232
SWIDTH 434 0
DWIDTH 10 0
BBX 10 20 0 1
BITMAP
1D0000
1F0000
078000
01D000
006000
000000
000000
01BE40
0782D0
1F01F0
3E00F0
7D01F0
7D02E0
BD0BC0
BFF920
7D0020
7E0020
2F0020
0BD090
01BE40
ENDCHAR
STARTCHAR eacute
ENCODING 233
SWIDTH 434 0
DWIDTH 10 0
BBX 10 19 0 1
BITMAP
000240
000B00
000E00
001C00
002000
000000
01BE40
0782D0
1F01F0
3E00F0
7D01F0
7D02E0
BD0BC0
BFF920
7D0020
7E0020
2F0020
0BD090
01BE40
ENDCHAR
STARTCHAR ecircumflex
ENCODING 234
SWIDTH 434 0
DWIDTH 10 0
BBX 10 20 0 1
BITMAP
002000
00B800
019E00
0207D0
0800B0
100000
000000
01BE40
0782D0
1F01F0
3E00F0
7D01F0
7D02E0
BD0BC0
BFF920
7D0020
7E0020
2F0020
0BD090
01BE40
ENDCHAR
STARTCHAR edieresis
ENCODING 235
SWIDTH 434 0
DWIDTH 10 0
BBX 10 18 0 1
BITMAP
01D000
03E740
02DB40
000000
000000
01BE40
0782D0
1F01F0
3E00F0
7D01F0
7D02E0
BD0BC0
BFF920
7D0020
7E0020
2F0020
0BD090
01BE40
ENDCHAR
STARTCHAR igrave
ENCODING 236
SWIDTH 301 0
DWIDTH 7 0
BBX 8 20 -1 2
BITMAP
A000
B800
2D00
0B00
0240
0000
0000
0064
2FF4
03F4
02F0
02F0
02F0
02F0
02E0
02E0
02E0
02E0
03F4
1FFE
ENDCHAR
STARTCHAR iacute
ENCODING 237
SWIDTH 301 0
DWIDTH 7 0
BBX 7 19 0 2
BITMAP
0070
00E0
01C0
0340
0200
0000
0190
BFD0
0FD0
0BC0
0BC0
0BC0
0BC0
0B80
0B80
0B80
0B80
0FD0
7FF8
ENDCHAR
STARTCHAR icircumflex
ENCODING 238
SWIDTH 301 0
DWIDTH 7 0
BBX 9 19 -1 2
BITMAP
008000
02E000
067800
081F40
2002C0
400000
006400
2FF400
03F400
02F000
02F000
02F000
02F000
02E000
02E000
02E000
02E000
03F400
1FFE00
ENDCHAR
STARTCHAR idieresis
ENCODING 239
SWIDTH 301 0
DWIDTH 7 0
BBX 7 18 0 2
BITMAP
1D00
3E74
2D74
0000
0000
0190
BFD0
0FD0
0BC0
0BC0
0BC0
0BC0
0B80
0B80
0B80
0B80
0FD0
7FF8
ENDCHAR
STARTCHAR eth
ENCODING 240
SWIDTH 476 0
DWIDTH 11 0
BBX 13 22 -2 -2
BITMAP
00001000
00004000
06FE8000
2907D000
9005B400
00043C00
00101E00
00000F00
00000F40
00000B80
00000B80
001BEBC0
00B82FC0
01F00BC0
02E007C0
02E003C0
02E003C0
02F00380
01F40380
00F80300
007E0A00
000BF400
ENDCHAR
STARTCHAR ntilde
ENCODING 241
SWIDTH 584 0
DWIDTH 14 0
BBX 14 20 0 0
BITMAP
000B8000
0022F480
0010BF80
00002F40
00000000
02400000
0B80BD00
2F83FF40
4B892F80
07D40FC0
03E00BC0
03E00BC0
02E00780
01E00B80
01E00B80
00E00B40
00E01F40
00F1FF40
0FFD1780
00040060
ENDCHAR
STARTCHAR ograve
ENCODING 242
SWIDTH 400 0
DWIDTH 10 0
BBX 16 20 0 4
BITMAP
0000002D
0000003F
0000002F
0000000B
38000006
3D000005
0F000008
07800014
00800060
00000180
00001900
07BF9000
2F1E0000
7D0B8000
BC0BD000
B807D000
B80BD000
7C0BC000
2D1F4000
0BF80000
ENDCHAR
STARTCHAR oacute
ENCODING 243
SWIDTH 400 0
DWIDTH 10 0
BBX 16 20 0 4
BITMAP
0000002D
0000003F
0000002F
0000000B
00024006
000B0005
000E0008
00180014
00200060
00000180
00001900
07BF9000
2F1E0000
7D0B8000
BC0BD000
B807D000
B80BD000
7C0BC000
2D1F4000
0BF80000
ENDCHAR
STARTCHAR ocircumflex
ENCODING 244
SWIDTH 400 0
DWIDTH 10 0
BBX 16 20 0 4
BITMAP
0000002D
0000003F
0000002F
0000000B
00600006
00B80005
019E0008
06078014
0801A060
20000180
00001900
07BF9000
2F1E0000
7D0B8000
BC0BD000
B807D000
B80BD000
7C0BC000
2D1F4000
0BF80000
ENDCHAR
STARTCHAR otilde
ENCODING 245
SWIDTH 400 0
DWIDTH 10 0
BBX 16 20 0 4
BITMAP
0000002D
0000003F
0000002F
0000000B
00000006
00000005
02E00008
047D2014
041FF060
0007D180
00001900
07BF9000
2F1E0000
7D0B8000
BC0BD000
B807D000
B80BD000
7C0BC000
2D1F4000
0BF80000
ENDCHAR
STARTCHAR odieresis
ENCODING 246
SWIDTH 400 0
DWIDTH 10 0
BBX 16 20 0 4
BITMAP
0000002D
0000003F
0000002F
0000000B
00000006
00000005
02C00008
07DB0014
038B0060
00000180
00001900
07BF9000
2F1E0000
7D0B8000
BC0BD000
B807D000
B80BD000
7C0BC000
2D1F4000
0BF80000
ENDCHAR
STARTCHAR divide
ENCODING 247
SWIDTH 592 0
DWIDTH 14 0
BBX 12 10 1 2
BITMAP
007800
007800
000000
000000
000000
BFFFFE
000000
007800
00BC00
007800
ENDCHAR
STARTCHAR oslash
ENCODING 248
SWIDTH 396 0
DWIDTH 10 0
BBX 9 15 0 0
BITMAP
001400
002000
06F900
2D6F40
785B80
B487C0
B487C0
B547C0
7A0B80
2F1F00
0BF800
090000
090000
0C0000
040000
ENDCHAR
STARTCHAR ugrave
ENCODING 249
SWIDTH 744 0
DWIDTH 18 0
BBX 18 19 0 0
BITMAP
0028000000
002E000000
000B400000
0002C00000
0000900000
0000000000
008001A000
01D07FF000
1BD001F000
6BE000F000
02E000F000
02F000F400
01F000F400
01F401B800
00F8017800
00FC027FE0
00BE092500
003FF80000
000BE00000
ENDCHAR
STARTCHAR uacute
ENCODING 250
SWIDTH 744 0
DWIDTH 18 0
BBX 18 19 0 0
BITMAP
0000280000
0000740000
0000A00000
0001D00000
0001400000
0000000000
008001A000
01D07FF000
1BD001F000
6BE000F000
02E000F000
02F000F400
01F000F400
01F401B800
00F8017800
00FC027FE0
00BE092500
003FF80000
000BE00000
ENDCHAR
STARTCHAR ucircumflex
ENCODING 251
SWIDTH 744 0
DWIDTH 18 0
BBX 18 19 0 0
BITMAP
0002000000
0007C00000
0019F00000
00203D0000
00900B0000
0100000000
008001A000
01D07FF000
1BD001F000
6BE000F000
02E000F000
02F000F400
01F000F400
01F401B800
00F8017800
00FC027FE0
00BE092500
003FF80000
000BE00000
ENDCHAR
STARTCHAR udieresis
ENCODING 252
SWIDTH 744 0
DWIDTH 18 0
BBX 18 18 0 0
BITMAP
000B000000
000F6D0000
000B2C0000
0000000000
0000000000
008001A000
01D07FF000
1BD001F000
6BE000F000
02E000F000
02F000F400
01F000F400
01F401B800
00F8017800
00FC027FE0
00BE092500
003FF80000
000BE00000
ENDCHAR
STARTCHAR yacute
ENCODING 253
SWIDTH 659 0
DWIDTH 16 0
BBX 16 28 0 -11
BITMAP
00000700
00000E00
00002C00
00003400
00186000
00B40005
1BD03FFD
BFC007F4
0FC002F4
0BC002F4
0BD002F0
07D002F0
03E003F0
02F407F0
01FD1EE0
00BFF5E0
001F92D0
000002D0
000002C0
00000380
00000340
00000740
00B80600
03FE0D00
067D1C00
05007400
0241D000
00BE4000
ENDCHAR
STARTCHAR thorn
ENCODING 254
SWIDTH 514 0
DWIDTH 12 0
BBX 13 35 -1 -15
BITMAP
01900000
1F800000
FF400000
0F000000
0F400000
0B400000
0B400000
0B400000
0B6F9000
07D1F800
07C07E00
07803F00
07802F40
07801F80
07801F80
07C01FC0
03C01F80
03C02F80
03D03F40
03E0BE00
03DBF400
03D00000
03D00000
03D00000
03E00000
03E00000
03E00000
03E00000
03E00000
03F00000
07F00000
07F00000
0BF00000
7FF90000
0016C000
ENDCHAR
STARTCHAR ydieresis
ENCODING 255
SWIDTH 659 0
DWIDTH 16 0
BBX 16 29 0 -11
BITMAP
0002C000
0007DB00
00038F00
00000000
00000000
00180000
00B40005
1BD03FFD
BFC007F4
0FC002F4
0BC002F4
0BD002F0
07D002F0
03E003F0
02F407F0
01FD1EE0
00BFF5E0
001F92D0
000002D0
000002C0
00000380
00000340
00000740
00B80600
03FE0D00
067D1C00
05007400
0241D000
00BE4000
ENDCHAR
STARTCHAR dotlessi
ENCODING 305
SWIDTH 301 0
DWIDTH 7 0
BBX 7 13 0 2
BITMAP
0190
BFD0
0FD0
0BC0
0BC0
0BC0
0BC0
0B80
0B80
0B80
0B80
0FD0
7FF8
ENDCHAR
STARTCHAR OE
ENCODING 338
SWIDTH 1132 0
DWIDTH 27 0
BBX 27 25 0 -5
BITMAP
00000000000240
00000000006F40
001BF90BFFEB40
01F406D3F40140
07C000BAF00040
1F40002FF00040
2E00000FF00000
7E000007F00000
BD000003F00000
BD000002F40100
FE000002F40400
BE000002F46C00
BF000002FFAC00
7F400002F80800
7FC00003F80500
2FE00007F80000
0FF8000FF80004
07FF407AF80004
01BFFFE1FC0008
001BFE41FC001C
00000001FC002C
00000001FC06FC
00000003FFFFFC
0000001E940000
00000050000000
ENDCHAR
STARTCHAR oe
ENCODING 339
SWIDTH 798 0
DWIDTH 19 0
BBX 19 12 0 1
BITMAP
06F9007E40
1E1F82D2C0
3C03EB80D0
7801FF00E0
B800FF01D0
BC00BF0780
BC00BFFE14
7E00BF0008
2F00AF4008
0FD1CBC018
02FE02E460
0000006F80
ENDCHAR
STARTCHAR circumflex
ENCODING 710
SWIDTH 483 0
DWIDTH 12 0
BBX 10 6 1 15
BITMAP
009000
01F000
027D00
090B40
2401D0
500000
ENDCHAR
STARTCHAR caron
ENCODING 711
SWIDTH 428 0
DWIDTH 10 0
BBX 8 7 1 16
BITMAP
0001
4005
7018
1D60
0BC0
0380
0200
ENDCHAR
STARTCHAR ring
ENCODING 730
SWIDTH 330 0
DWIDTH 8 0
BBX 6 6 1 20
BITMAP
1F80
6090
9060
A0A0
7FD0
2F40
ENDCHAR
STARTCHAR tilde
ENCODING 732
SWIDTH 433 0
DWIDTH 10 0
BBX 8 4 1 17
BITMAP
2E00
47D2
41FF
007D
ENDCHAR
STARTCHAR mu.dup1
ENCODING 956
SWIDTH 634 0
DWIDTH 15 0
BBX 14 20 1 -7
BITMAP
F4001000
F002F000
F002F000
F001F000
F400F400
F400F400
F800F450
FC00F820
BD01F820
BB467D20
B5B92FF0
B8000BD0
B8000000
B8000000
B8000000
BC000000
BC000000
BD000000
7D000000
7D000000
ENDCHAR
STARTCHAR endash
ENCODING 8211
SWIDTH 436 0
DWIDTH 10 0
BBX 8 2 1 5
BITMAP
5001
6FFE
ENDCHAR
STARTCHAR emdash
ENCODING 8212
SWIDTH 651 0
DWIDTH 16 0
BBX 14 2 1 5
BITMAP
056ABFD0
6A554000
ENDCHAR
STARTCHAR quoteleft
ENCODING 8216
SWIDTH 287 0
DWIDTH 7 0
BBX 5 8 1 12
BITMAP
0640
1C00
3C00
7C00
BE00
BF00
BF00
2E00
ENDCHAR
STARTCHAR quoteright
ENCODING 8217
SWIDTH 291 0
DWIDTH 7 0
BBX 5 8 1 11
BITMAP
7E00
BF40
BF80
2F80
0B80
0340
0600
1800
ENDCHAR
STARTCHAR quotesinglbase
ENCODING 8218
SWIDTH 272 0
DWIDTH 7 0
BBX 5 8 1 -4
BITMAP
7E00
BF40
BF40
2F40
0B00
0900
0800
1400
ENDCHAR
STARTCHAR quotedblleft
ENCODING 8220
SWIDTH 445 0
DWIDTH 11 0
BBX 9 9 1 10
BITMAP
018000
060200
1C0C00
381C00
7C2D00
BD3F40
BF2F40
BF1F00
2D0000
ENDCHAR
STARTCHAR quotedblright
ENCODING 8221
SWIDTH 444 0
DWIDTH 11 0
BBX 9 9 1 11
BITMAP
7D0000
BF2E00
BF7F40
2F3F40
0E1F40
090F00
180D00
202400
009000
ENDCHAR
STARTCHAR quotedblbase
ENCODING 8222
SWIDTH 482 0
DWIDTH 12 0
BBX 10 9 1 -6
BITMAP
6E0000
BF4B80
BF9FD0
3F9FD0
0B4BC0
074380
060340
080A00
001800
ENDCHAR
STARTCHAR bullet
ENCODING 8226
SWIDTH 351 0
DWIDTH 8 0
BBX 6 6 1 7
BITMAP
1F80
7FE0
BFF0
BFF0
7FE0
2F80
ENDCHAR
STARTCHAR guilsinglleft
ENCODING 8249
SWIDTH 465 0
DWIDTH 11 0
BBX 9 15 1 -2
BITMAP
000500
000800
002400
007000
01D000
07C000
1F4000
BF4000
2FC000
07E000
00B800
002D00
000B00
000240
000080
ENDCHAR
STARTCHAR guilsinglright
ENCODING 8250
SWIDTH 449 0
DWIDTH 11 0
BBX 9 15 1 -2
BITMAP
200000
240000
1D0000
0B4000
03D000
01F800
00FF40
01FD00
03F400
0BC000
0F0000
2D0000
340000
600000
900000
ENDCHAR
STARTCHAR fraction
ENCODING 8260
SWIDTH 406 0
DWIDTH 10 0
BBX 17 22 -4 0
BITMAP
0000000140
0000000600
0000000D00
0000002800
0000006000
000000D000
0000024000
00000A0000
00001C0000
0000340000
0000A00000
0001800000
0007000000
000D000000
0028000000
0070000000
00D0000000
0240000000
0600000000
0C00000000
2400000000
6000000000
ENDCHAR
STARTCHAR foursuperior
ENCODING 8308
SWIDTH 473 0
DWIDTH 11 0
BBX 11 15 0 7
BITMAP
001000
003400
007400
00F400
01B800
027810
083850
083DD0
203FD0
7AFFD0
142D00
002E00
003F80
01FFF8
014000
ENDCHAR
STARTCHAR Euro
ENCODING 8364
SWIDTH 799 0
DWIDTH 19 0
BBX 20 20 0 -1
BITMAP
0000000002
00002BF906
0002F907ED
000BD000F8
002F400078
007E000034
00FD000020
01FC064010
02F9A40000
03F9050000
2FF9A40000
13FE400000
1BF8000000
FBF8000080
02FC000080
01FD000140
00BF000300
003FD01E00
000BFFF800
0001BF9000
ENDCHAR
STARTCHAR minus
ENCODING 8722
SWIDTH 436 0
DWIDTH 10 0
BBX 8 2 1 5
BITMAP
5001
6FFE
ENDCHAR
STARTCHAR f_f
ENCODING 64256
SWIDTH 467 0
DWIDTH 11 0
BBX 14 36 0 -8
BITMAP
001B9000
007FE000
00D7F000
0183D000
02406F80
0301D2E0
070242F0
060707F0
0A0A0FF0
0A0E0FE0
0A0D0B80
0A0D0000
0A0D0000
0A0D1000
0BAFE800
2F5E0000
0B0E0000
0B0F0000
0B0B0000
0B4B4000
0B474000
0B478000
0B83C000
0783D000
07C2E000
07C2F000
07D1F800
03D1FF40
03E1E400
03E64000
02F00000
02F00000
02F40000
02FC0000
07FE0000
7EFFD000
ENDCHAR
STARTCHAR .notdef
ENCODING -1
SWIDTH 270 0
DWIDTH 6 0
BBX 5 15 1 0
BITMAP
FF80
0000
0000
0000
0000
0000
0000
0000
0000
0000
0000
0000
0000
0000
FF80
ENDCHAR
STARTCHAR .null
ENCODING -1
SWIDTH 0 0
DWIDTH 0 0
BBX 1 1 0 0
BITMAP
00
ENDCHAR
STARTCHAR nonmarkingreturn
ENCODING -1
SWIDTH 270 0
DWIDTH 6 0
BBX 1 1 0 0
BITMAP
00
ENDCHAR
STARTCHAR dieresis.case
ENCODING -1
SWIDTH 393 0
DWIDTH 9 0
BBX 8 3 1 18
BITMAP
7C38
BD7D
7838
ENDCHAR
STARTCHAR o.cmp
ENCODING -1
SWIDTH 400 0
DWIDTH 10 0
BBX 16 20 0 4
BITMAP
0000002D
0000003F
0000002F
0000000B
00000006
00000005
00000008
00000014
00000060
00000180
00001900
07BF9000
2F1E0000
7D0B8000
BC0BD000
B807D000
B80BD000
7C0BC000
2D1F4000
0BF80000
ENDCHAR
STARTCHAR n_n
ENCODING -1
SWIDTH 1024 0
DWIDTH 25 0
BBX 25 16 0 -1
BITMAP
01400000000000
0781BD00000000
2F87FF40000000
AFC92F81900000
0BD40FDFD6E400
07E00BC7D4BC00
03E00BC3E03D00
02E007C3D03E00
02E00783D03E00
01E00B83C03E00
01E00B47D03E00
00E00B47D07D00
00F01F5FE8BD00
0FFDFF940BFE00
000401D0000640
00000010000000
ENDCHAR
STARTCHAR a_a
ENCODING -1
SWIDTH 911 0
DWIDTH 22 0
BBX 23 16 0 -2
BITMAP
000000BF8000
000002D1F000
000007C07800
0BE007E03C00
282C02D03C00
341D00003D00
7C0E02FE7D00
2C0E1F41BD00
000E2D003D00
06FE3DE07D00
2F4F3D707D00
7D0F3F61FD00
BC0B5FFF7E00
7D13D6F83E04
2F90BE402F54
0000000007E0
ENDCHAR
STARTCHAR t_h
ENCODING -1
SWIDTH 854 0
DWIDTH 21 0
BBX 22 30 -1 -4
BITMAP
000002800000
00006F800000
000BFF800000
00001F800000
00000B800000
00000B400000
00000B400000
00020B400000
00070B400000
001E0B400000
01BE0B400000
6FFFFFE00000
10BC0F000000
00B80F1BE400
00B80F647E00
00B80F801F40
00F80F400F80
00F81F000BC0
00F81F0B4BC0
00B81F0F8BC0
00B81E0B8B80
007C2E034F80
002E2E070F40
000BAE1D0F40
0001BFE01F00
00003F402F00
0001FFF43E00
000A4001BF00
0000000BFF80
0000000006D0
ENDCHAR
STARTCHAR s_s
ENCODING -1
SWIDTH 654 0
DWIDTH 16 0
BBX 17 20 -1 -3
BITMAP
0000040100
002FA00200
0074A6FE00
00B05F0A00
00B01D0600
00781E0200
003E1F0000
001F8F4000
0007E7D000
0001F6F000
0400BDF800
08003DBD00
0C0B6D3E00
1C2F6D2F00
2E293C2F40
42B1B42F40
007F903F00
0018007E00
000A41F800
0001BF9000
ENDCHAR
STARTCHAR t_t
ENCODING -1
SWIDTH 569 0
DWIDTH 14 0
BBX 14 21 0 -2
BITMAP
0003C000
0027C000
0067C000
01D7C640
1BEBF400
BFFFC000
0BCB8000
0BCB4000
0B8B4000
0B8B4000
0F8B4000
0F8B4000
0F874780
0B8387E0
0B82D1A0
0B80F490
07C02F40
02D01E00
01E02F00
00787E00
001BF800
ENDCHAR
STARTCHAR e_e
ENCODING -1
SWIDTH 782 0
DWIDTH 19 0
BBX 19 14 0 0
BITMAP
02F802F900
1F0E1E0B00
3D0B3C0340
7C0B780380
B80AB80280
F81CF40380
F9B4F40340
BF80F80700
BD00B80D20
3E00BC2824
1F807DA014
07E42F8024
006FEFD060
000001BF80
ENDCHAR
STARTCHAR o_o
ENCODING -1
SWIDTH 751 0
DWIDTH 18 0
BBX 25 21 0 2
BITMAP
00000000001E00
00000000002F40
00000000001F40
00000000000740
00000000000300
00000000000200
00000000000500
00000000000800
00000000002400
00000000019000
01BE40001A4000
0B81E75FE40000
2E007D0B400000
7D007803C00000
7C00BC03E00000
B800FC03E00000
B800F807D00000
7C00B91F800000
3D00EBF9000000
1F468000000000
02FE0000000000
ENDCHAR
STARTCHAR l_l
ENCODING -1
SWIDTH 573 0
DWIDTH 14 0
BBX 15 24 -1 -3
BITMAP
00900600
02D06E00
1FD7FE00
67D07E00
07D03E00
07D03E00
03D03E00
03D03E00
03D03E00
03D02E00
03D02F00
03D02F00
03D02F00
03D02F00
03D02F00
03D02F40
07E02F40
07E02F80
07E02FD0
07E1BFF8
07E00000
FFF00000
06F80000
001A0000
ENDCHAR
STARTCHAR z_z
ENCODING -1
SWIDTH 875 0
DWIDTH 21 0
BBX 23 16 -1 -2
BITMAP
000290190000
0003FFFC0000
079100780000
050BF8B40000
040BF0F00000
001FD2E00000
003F83C00000
007E0B800000
00FD0F404000
01F42F008000
03E07E01C2E0
0BC0BFFFC3F4
1F40000002F0
2FBFE90001E0
69016FE502D0
0000006BF900
ENDCHAR
STARTCHAR j_j
ENCODING -1
SWIDTH 577 0
DWIDTH 14 0
BBX 17 33 -3 -15
BITMAP
00000B4000
00001FC000
0003DFC000
0007DB4000
0003C1A000
00002FF400
000057F800
00BFF5F800
000BF8FC00
0002F87D00
0001FC3D00
0000FC2E00
0000BC2E00
00007C1F00
00007D1F00
00003D0F00
00003D0F40
00003D0B40
00003D0B40
00002D0B40
00002C0740
00002C0740
1B803C0740
3FD0380740
7FD0740700
B900700700
A000A00A00
6001C00A00
280B400900
0BF9F00C00
0001F81400
0001FD1000
0000BE4000
ENDCHAR
STARTCHAR f_b
ENCODING -1
SWIDTH 731 0
DWIDTH 18 0
BBX 19 32 -1 -5
BITMAP
0002F80000
000D0A0000
0028070000
00300B4000
00606F4000
00A1FF0000
00E1FE0000
00D0A94000
01D01B8000
01E1FF8000
02F5AF8000
6FF40B8000
56E00B8000
02E0078000
02E0078000
02E0078000
02E0078000
02E0078000
02F0078000
02F007AF80
02F007D2F0
02F00781F4
02F00741F8
02F00741F8
02F00742F4
02F00B87E0
02F02FFF80
02F4640000
02F8000000
03FF800000
1A40000000
1000000000
ENDCHAR
STARTCHAR f_k
ENCODING -1
SWIDTH 708 0
DWIDTH 17 0
BBX 17 29 0 -4
BITMAP
0001000000
000A000000
006E000000
0BFFF80000
003E1F0000
007E1F4000
00DE7F4000
018E7F0000
028E2D0000
034F000000
074F000000
074F000000
2F0F090000
1B0F02F800
0B0F024000
0B0F090000
0B0F280000
0B0FB80000
0B0FFC0000
0B0F7D0200
0B0F6E0140
0B0F5F4080
0B0F8BD180
0F0F83FF40
1F4F80BE00
7F8FC00000
006FE50000
02FFFF4000
0140000000
ENDCHAR
STARTCHAR f_h
ENCODING -1
SWIDTH 873 0
DWIDTH 21 0
BBX 22 31 -1 -4
BITMAP
0002F8000000
00090A000000
002807400000
00300B400000
0060BF400000
00A1FE200000
00E1F9E00000
00D01BE00000
01D0BFD00000
01E043D00000
02FA92D00000
6FF402C00000
57E002C00000
02E002C00000
02E002C00000
02E003C00000
02E003C00000
02E003C6F400
02F003D47D00
02F003E02E00
02F007D02F00
02F007C02F00
02F007C02F00
02F007802F00
02F00B802F00
02F00B802F40
02F41F807FE0
02F9FFE05010
03FFD0500000
1A4000000000
100000000000
ENDCHAR
ENDFONT
